<svg class="svg-icon" style="width: 1.0009765625em; height: 1em;vertical-align: middle;fill: currentColor;overflow: hidden;" viewBox="0 0 1025 1024" version="1.1" xmlns="http://www.w3.org/2000/svg"><path d="M1024.887808 133.12c-3.413333-10.24-10.24-13.653333-20.48-13.653333l-136.533333 34.133333c-3.413333 0-6.826667 3.413333-10.24 6.826667l-98.986667 133.12-157.013333 61.44c-6.826667-13.653333-13.653333-23.893333-23.893334-34.133334 6.826667-13.653333 20.48-40.96 20.48-64.853333 0-27.306667-10.24-54.613333-27.306666-75.093333 20.48-10.24 37.546667-30.72 54.613333-54.613334 30.72-37.546667 64.853333-78.506667 109.226667-78.506666 10.24 3.413333 17.066667-3.413333 17.066666-13.653334s-6.826667-17.066667-17.066666-17.066666c-61.44 0-102.4 51.2-136.533334 88.746666-17.066667 23.893333-37.546667 47.786667-51.2 47.786667-3.413333 0-10.24 3.413333-13.653333 6.826667-6.826667-3.413333-13.653333-3.413333-20.48-3.413334s-13.653333 0-20.48 3.413334c-3.413333-3.413333-6.826667-6.826667-13.653333-6.826667-13.653333 0-34.133333-23.893333-51.2-47.786667-34.133333-40.96-75.093333-88.746667-136.533334-88.746666-10.24 0-17.066667 6.826667-17.066666 17.066666s6.826667 17.066667 17.066666 17.066667c44.373333 0 78.506667 40.96 109.226667 78.506667 20.48 23.893333 37.546667 44.373333 54.613333 54.613333-17.066667 20.48-27.306667 47.786667-27.306666 75.093333 0 27.306667 10.24 51.2 20.48 64.853334-6.826667 10.24-13.653333 17.066667-20.48 27.306666L267.127808 310.613333 168.141141 160.426667c-3.413333-3.413333-6.826667-6.826667-10.24-6.826667l-136.533333-34.133333c-6.826667-3.413333-17.066667 3.413333-20.48 13.653333-3.413333 10.24 3.413333 17.066667 13.653333 20.48l129.706667 34.133333 98.986667 146.773334c3.413333 3.413333 6.826667 6.826667 10.24 6.826666l160.426666 40.96c0 6.826667-3.413333 10.24-3.413333 17.066667l-177.493333 61.44c-3.413333 0-6.826667 3.413333-10.24 10.24l-81.92 201.386667-98.986667 64.853333c-6.826667 3.413333-10.24 13.653333-3.413333 23.893333 3.413333 3.413333 10.24 6.826667 13.653333 6.826667 3.413333 0 6.826667 0 10.24-3.413333l102.4-68.266667 6.826667-6.826667 81.92-197.973333 160.426666-54.613333c0 10.24 3.413333 17.066667 6.826667 27.306666l-3.413333 3.413334-170.666667 204.8c-6.826667 3.413333-6.826667 6.826667-6.826667 10.24v167.253333l-64.853333 133.12c-3.413333 6.826667 0 17.066667 6.826667 23.893333 3.413333 0 3.413333 3.413333 6.826666 3.413334 6.826667 0 13.653333-3.413333 13.653334-10.24l68.266666-136.533334c3.413333-3.413333 3.413333-6.826667 3.413334-10.24v-163.84l157.013333-187.733333c0 3.413333 3.413333 6.826667 3.413333 6.826667l3.413334 3.413333c-34.133333 44.373333-58.026667 116.053333-58.026667 191.146667 0 126.293333 64.853333 238.933333 136.533333 238.933333s136.533333-112.64 136.533334-238.933333c0-78.506667-23.893333-146.773333-58.026667-191.146667v-3.413333s0-3.413333 3.413333-3.413334l139.946667 187.733334V853.333333c0 3.413333 0 6.826667 3.413333 10.24l85.333334 136.533334c3.413333 6.826667 10.24 6.826667 13.653333 6.826666 3.413333 0 6.826667 0 10.24-3.413333 6.826667-3.413333 10.24-17.066667 6.826667-23.893333l-81.92-133.12V682.666667c0-3.413333 0-6.826667-3.413334-10.24l-153.6-204.8c0-3.413333-3.413333-3.413333-3.413333-3.413334 3.413333-10.24 3.413333-17.066667 6.826667-27.306666l160.426666 54.613333 81.92 197.973333c0 3.413333 3.413333 6.826667 6.826667 6.826667l102.4 68.266667c3.413333 3.413333 6.826667 3.413333 10.24 3.413333 6.826667 0 10.24-3.413333 13.653333-6.826667 6.826667-6.826667 3.413333-17.066667-3.413333-23.893333l-98.986667-64.853333-81.92-201.386667-10.24-10.24-187.733333-61.44c0-3.413333 0-6.826667-3.413333-10.24l163.84-64.853333c3.413333 0 6.826667-3.413333 6.826666-6.826667l98.986667-133.12 129.706667-34.133333c10.24 0 17.066667-10.24 13.653333-17.066667z" fill="" /></svg>