<?xml version="1.0" standalone="no"?>
<!DOCTYPE svg PUBLIC "-//W3C//DTD SVG 20010904//EN"
 "http://www.w3.org/TR/2001/REC-SVG-20010904/DTD/svg10.dtd">
<svg version="1.0" xmlns="http://www.w3.org/2000/svg"
 width="1280.000000pt" height="1280.000000pt" viewBox="0 0 1280.000000 1280.000000"
 preserveAspectRatio="xMidYMid meet">
<metadata>
Created by potrace 1.16, written by Peter Selinger 2001-2019
</metadata>
<g transform="translate(0.000000,1280.000000) scale(0.100000,-0.100000)"
fill="#000000" stroke="none">
<path d="M4495 11043 c-70 -37 -105 -95 -105 -173 0 -77 21 -114 133 -228 318
-325 582 -531 1005 -786 190 -114 281 -174 334 -218 l27 -23 -149 4 c-168 4
-522 -13 -745 -35 -657 -65 -1276 -215 -1845 -449 -135 -55 -405 -184 -507
-242 l-71 -41 -55 53 c-69 67 -192 128 -313 156 -77 17 -142 21 -489 29 -407
9 -561 19 -740 47 -299 46 -480 150 -561 322 -20 42 -43 91 -52 110 -26 53
-105 101 -166 101 -71 0 -157 -55 -182 -117 -58 -137 81 -417 281 -570 261
-199 653 -283 1330 -283 353 0 546 -20 588 -60 5 -4 -36 -41 -90 -81 -214
-161 -459 -395 -607 -579 -512 -640 -649 -1397 -380 -2098 170 -443 490 -850
946 -1202 96 -75 112 -92 138 -145 15 -33 33 -82 38 -110 13 -61 1 -91 -47
-119 -71 -41 -130 -47 -541 -56 -494 -10 -651 -24 -889 -77 -126 -27 -236 -65
-333 -114 -193 -97 -345 -260 -417 -449 -54 -139 -37 -240 51 -297 36 -24 52
-28 114 -28 66 0 76 3 111 31 39 31 49 48 104 167 45 99 123 174 241 231 206
99 434 129 1078 141 424 8 525 23 682 107 117 62 217 192 233 302 l7 43 152
-77 c703 -354 1554 -572 2456 -630 91 -5 238 -10 327 -10 l161 0 -5 -42 c-18
-150 -61 -252 -142 -341 -67 -72 -127 -115 -356 -252 -298 -179 -468 -297
-670 -464 -134 -112 -444 -420 -467 -465 -61 -118 15 -272 141 -284 103 -10
107 -7 317 198 302 295 502 446 915 694 109 65 240 152 293 192 220 170 322
364 356 679 6 60 13 111 15 113 2 2 70 17 152 32 471 88 1063 278 1572 504 57
25 105 46 107 46 1 0 26 -48 54 -107 72 -153 190 -363 205 -369 31 -12 461
219 685 369 305 204 617 479 820 722 l75 90 45 -68 c93 -141 205 -236 499
-422 187 -119 286 -201 328 -272 21 -37 27 -62 33 -146 4 -62 13 -114 22 -132
71 -135 262 -140 343 -10 28 45 29 53 29 154 -1 171 -45 298 -145 424 -89 111
-184 185 -493 378 -227 142 -326 261 -345 415 -5 40 -14 80 -19 90 -8 15 -3
33 25 84 l36 65 171 0 c127 0 194 5 261 19 106 22 264 75 349 118 165 82 337
224 446 370 72 95 152 254 177 350 15 60 20 67 38 62 50 -14 294 -139 373
-190 244 -159 498 -414 628 -633 20 -34 38 -61 40 -61 18 0 144 73 144 83 0
22 -133 218 -212 312 -144 172 -308 317 -495 439 -105 69 -355 195 -430 217
l-43 12 0 77 c0 43 -3 91 -6 107 -5 27 -3 31 23 37 56 15 240 99 343 157 269
153 504 361 688 608 59 80 132 199 132 216 0 16 -138 81 -149 69 -4 -5 -33
-47 -63 -94 -202 -314 -552 -605 -909 -754 l-106 -44 -13 41 c-32 107 -129
269 -227 381 -253 286 -674 455 -1070 429 l-91 -6 -16 32 c-15 27 -15 34 -2
53 8 13 19 59 25 103 26 185 105 270 461 490 221 137 357 258 433 386 58 99
79 175 85 316 4 111 2 126 -18 168 -14 29 -38 56 -63 73 -34 23 -51 27 -112
27 -59 0 -78 -4 -107 -24 -65 -45 -81 -81 -88 -194 -12 -185 -59 -238 -385
-442 -267 -167 -407 -289 -486 -424 l-36 -61 -74 92 c-95 119 -294 325 -433
446 -145 128 -374 298 -543 403 -134 83 -453 259 -471 259 -8 0 -130 -244
-201 -404 -24 -54 -35 -67 -48 -63 -10 3 -85 33 -168 68 -448 185 -1004 356
-1432 440 l-111 21 -21 57 c-35 97 -93 183 -181 271 -95 95 -201 170 -493 346
-335 202 -557 374 -821 638 -88 87 -174 167 -190 177 -39 24 -138 25 -181 2z"/>
</g>
</svg>
