<?xml version="1.0" standalone="no"?>
<!DOCTYPE svg PUBLIC "-//W3C//DTD SVG 20010904//EN"
 "http://www.w3.org/TR/2001/REC-SVG-20010904/DTD/svg10.dtd">
<svg version="1.0" xmlns="http://www.w3.org/2000/svg"
 width="640.000000pt" height="1280.000000pt" viewBox="0 0 640.000000 1280.000000"
 preserveAspectRatio="xMidYMid meet">
<metadata>
Created by potrace 1.15, written by Peter Selinger 2001-2017
</metadata>
<g transform="translate(0.000000,1280.000000) scale(0.100000,-0.100000)"
fill="#000000" stroke="none">
<path d="M3155 12782 c-114 -70 -281 -418 -482 -1007 l-65 -190 2 -2237 1
-2236 -124 -159 c-608 -778 -967 -1364 -967 -1581 0 -50 27 -98 63 -114 48
-20 195 -14 307 12 178 42 244 72 485 219 l230 140 5 -127 5 -127 152 -3 151
-3 -123 -214 c-103 -179 -120 -215 -104 -215 19 0 19 0 0 -27 -11 -16 -39
-111 -65 -218 -131 -549 -165 -882 -123 -1185 71 -512 282 -1586 563 -2874 80
-366 102 -446 123 -446 31 0 33 10 235 940 247 1138 388 1830 473 2320 43 246
46 278 47 440 0 154 -3 189 -27 295 -52 233 -197 658 -248 728 l-20 27 37 0
c25 0 35 4 31 12 -2 7 -57 100 -121 206 -64 106 -116 197 -116 202 0 5 64 6
143 3 l144 -6 7 134 c4 73 9 135 11 137 4 5 84 -42 305 -177 132 -81 186 -108
270 -135 155 -50 258 -68 362 -64 87 3 91 4 119 36 25 27 29 41 29 88 0 217
-315 741 -902 1503 l-183 236 -5 2245 -5 2245 -52 160 c-227 703 -394 1035
-520 1035 -10 0 -32 -8 -48 -18z"/>
</g>
</svg>
